<svg width="20" height="20" viewBox="0 0 20 20" fill="none" xmlns="http://www.w3.org/2000/svg">
<path fill-rule="evenodd" clip-rule="evenodd" d="M10.6371 5.72746V7.98992C11.0814 7.26822 11.6937 6.6819 12.4142 6.28836C13.1346 5.89481 13.9386 5.70751 14.7473 5.7448C19.0662 5.7448 20 8.62453 20 12.3708V19.9981H15.9998V13.2361C15.9998 11.6229 15.6948 9.54844 13.3397 9.54844C11.0559 9.54844 10.6659 11.3043 10.6659 13.1161V19.9981H6.67824V5.72746H10.6371ZM3.99938 2.14113C3.99889 2.56376 3.88143 2.97684 3.66172 3.32856C3.44201 3.68028 3.12984 3.955 2.76433 4.11828C2.39898 4.28024 1.99671 4.32261 1.60871 4.23999C1.22071 4.15737 0.864529 3.9535 0.5855 3.65432C0.305947 3.35496 0.115625 2.97413 0.0384694 2.55972C-0.0386864 2.1453 0.000768408 1.71581 0.151872 1.32524C0.302975 0.934681 0.558981 0.600486 0.887696 0.364685C1.21641 0.128883 1.60316 0.00200302 1.9993 0C2.26259 -1.97434e-06 2.52329 0.0554369 2.76644 0.163137C3.00959 0.270837 3.23041 0.428678 3.41623 0.627606C3.60205 0.826534 3.74922 1.06263 3.84929 1.32236C3.94936 1.58209 4.00037 1.86033 3.99938 2.14113Z" fill="#DDDDDD" fill-opacity="0.75"/>
<path d="M4.00015 5.74658H0V19.9999H4.00015V5.74658Z" fill="#DDDDDD" fill-opacity="0.75"/>
</svg>
